<?xml version="1.0" encoding="utf-8"?>
<!-- Generator: Adobe Illustrator 16.0.3, SVG Export Plug-In . SVG Version: 6.00 Build 0)  -->
<!DOCTYPE svg PUBLIC "-//W3C//DTD SVG 1.1//EN" "http://www.w3.org/Graphics/SVG/1.1/DTD/svg11.dtd">
<svg version="1.1" id="Layer_1" xmlns="http://www.w3.org/2000/svg" xmlns:xlink="http://www.w3.org/1999/xlink" x="0px" y="0px"
	 width="140px" height="140px" viewBox="0 0 140 140" enable-background="new 0 0 140 140" xml:space="preserve">
<g>
	<rect fill="#D20A11" width="140" height="140.006"/>
	<g>
		<g>
			<path fill-rule="evenodd" clip-rule="evenodd" fill="#FFFFFF" d="M130.394,100.512c-0.866-0.135-1.364,1.09-3.42,3.084
				c-1.151,1.113-2.372,2.262-4.355,3.102c-2.911,1.236-3.419-0.426-3.125-2.822c0.312-2.545,1.406-5.803,1.772-7.545
				c0.127-0.602,0.146-1.41-0.382-2.227c-0.594-0.912-2.011-1.404-2.741-0.531c-1.079,1.273-1.551,2.205-5.026,6.555
				c-3.057,3.836-6.989,7.002-9.212,5.277c-1.207-0.93-1.353-2.828-0.009-5.457c1.466-2.863,4.838-6.154,7.843-8.342
				c3.935-2.857,6.1-3.322,6.517-3.438c0.532-0.141,0.944-0.156,1.121,0.061c0.439,0.547-0.728,1.188-0.354,2.439
				c0.261,0.865,1.172,1.238,1.711,1.273c0.769,0.061,2.598-0.42,2.983-2.793c0.388-2.383-1.812-6.586-11.921-2.719
				c-7.744,2.957-15.583,10.496-16.95,16.623c-1.51,0.969-3.396,1.787-5.32,1.641c-3.565-0.271-3.264-4.629-1.505-7.975
				c1.787-3.377,4.924-5.715,5.895-6.613c1.359-1.258,2.674-1.43,1.884-3.631c-0.558-1.533-1.434-1.621-2.891-1.203
				c-3.513,1.014-7.623,1.775-10.273,2.047c-0.089-1.686-1.119-3.324-3.374-3.318c-2.326,0.004-4.743,2.168-5.173,4.885
				c-0.464,2.949,0.972,4.457,2.268,5.002c-2.679,4.947-8.369,11.037-13.873,11.451c-1.55,0.113-2.974-0.42-3.702-1.271
				c3.672-2.107,7.308-4.941,9.346-9.174c2.686-5.568-0.004-8.836-3.881-8.836c-4.352,0-12.309,4.414-14.739,12.01
				c-0.647,2.049-0.809,4.641-0.188,7.012c-2.272,0.801-4.748,1.32-7.08,1.32c-3.447,0-3.505-2.652-2.668-4.439
				c0.589-1.262,5.316-11.354,8.56-18.217c10.448-1.852,24.444-4.312,27.017-4.783c1.558-0.281,3.443-0.381,3.326-1.703
				c-0.085-1-1.341-0.973-2.383-0.928l-25.048,1.27c2.664-6.462-3.582-8.968-4.633-7.525c-0.422,0.566-2.08,3.885-4.067,7.967
				l-4.614,0.23c-2.045,0.16-5.382,0.488-5.856,3.826c-0.369,2.613,2.327,4.146,5.379,3.59c0.399-0.082,0.918-0.17,1.54-0.283
				c-2.165,4.537-4.101,8.639-4.706,9.971c-1.493,3.27-3.044,6.219-3.397,8.988c-2.207,1.309-4.623,2.283-6.712,2.197
				c-3.445-0.127-3.339-2.838-2.611-4.438c0.528-1.15,1.43-3.16,2.601-5.684c1.585-3.402,0.061-6.023-2.413-6.902
				c-1.674-0.598-3.219-0.629-3.888-0.033c-0.863,0.768-0.211,2.699-0.921,4.273c-1.533,3.143-2.708,5.869-3.495,7.553
				c-1.711,3.615-1.419,6.748,0.38,8.736c1.282,1.428,3.419,2.346,6.303,2.346c3.445,0,7.698-1.902,11.211-4.234
				c0.115,0.281,0.254,0.559,0.41,0.836c1.095,1.91,3.424,3.238,6.642,3.238c3.532,0,8.607-1.742,12.602-3.988
				c1.45,1.998,3.841,3.41,7.465,3.469c10.455,0.158,18.719-9.777,22.002-17.652c2.895-0.412,6.491-1.844,6.491-1.844
				s-9.29,8.568-7.223,15.295c0.82,2.678,3.604,4.906,7.586,4.514c3.197-0.312,5.962-2.125,8.097-4.125
				c1.416,3.529,5.071,4.08,7.526,3.73c6.113-0.881,10.181-6.924,10.181-6.924s-0.638,2.326,0.215,4.348
				c0.615,1.465,2.091,2.824,4.834,2.824c6.188,0,11.058-6.322,12.064-7.875C131.654,101.488,131.266,100.646,130.394,100.512
				 M56.833,101.225c-0.139-0.33-0.866-3.129,1.294-6.67c1.802-2.975,4.943-4.738,6.18-3.674c0.847,0.725-0.064,3.207-2.78,6.33
				C59.892,99.096,58.381,100.346,56.833,101.225"/>
			<path fill-rule="evenodd" clip-rule="evenodd" fill="#FFFFFF" d="M23.354,87.02c2.577,0,5.123-2.012,5.681-4.494
				c0.563-2.48-1.067-4.494-3.646-4.494s-5.127,2.014-5.689,4.494C19.137,85.008,20.778,87.02,23.354,87.02"/>
		</g>
		<g>
			<path fill="#FFFFFF" d="M16.425,126.668h-0.657l-2.961-6.391l0.048,7.734H12.06v-8.779h1.073l2.964,6.465l2.96-6.465h1.076v8.779
				h-0.795l0.05-7.734L16.425,126.668z"/>
			<path fill="#FFFFFF" d="M21.888,128.012l3.104-8.896h0.583l3.1,8.896h-0.899l-0.808-2.457h-3.373l-0.806,2.457H21.888z
				 M23.82,124.867h2.914l-1.454-4.416L23.82,124.867z"/>
			<path fill="#FFFFFF" d="M31.989,123.766l-0.761,0.879v3.367h-0.797v-8.779h0.797v4.377l3.665-4.377h1.033l-3.423,3.936
				l3.77,4.844h-1.039L31.989,123.766z"/>
			<path fill="#FFFFFF" d="M42.663,123.811h-3.889v3.463h4.299v0.738H37.98v-8.779h5.093v0.738h-4.299v3.104h3.889V123.811z"/>
			<path fill="#FFFFFF" d="M47.226,128.012l3.1-8.896h0.587l3.104,8.896h-0.905l-0.808-2.457h-3.37l-0.809,2.457H47.226z
				 M49.159,124.867h2.911l-1.452-4.416L49.159,124.867z"/>
			<path fill="#FFFFFF" d="M58.344,128.012v-8.779h2.388c2.866,0,3.699,1.898,3.699,4.391c0,2.496-0.833,4.389-3.699,4.389H58.344z
				 M59.141,127.273h1.638c2.108,0,2.809-1.543,2.809-3.65c0-2.105-0.701-3.652-2.809-3.652h-1.638V127.273z"/>
			<path fill="#FFFFFF" d="M66.827,128.012v-8.779h0.821v8.779H66.827z"/>
			<path fill="#FFFFFF" d="M74.789,123.811h-3.77v4.201h-0.794v-8.779h4.971v0.738H71.02v3.104h3.77V123.811z"/>
			<path fill="#FFFFFF" d="M81.81,123.811h-3.77v4.201h-0.797v-8.779h4.975v0.738H78.04v3.104h3.77V123.811z"/>
			<path fill="#FFFFFF" d="M88.948,123.811h-3.888v3.463h4.295v0.738h-5.09v-8.779h5.09v0.738h-4.295v3.104h3.888V123.811z"/>
			<path fill="#FFFFFF" d="M92.317,128.012h-0.8v-8.779h2.754c2.19,0,2.871,0.965,2.871,2.473c0,1.17-0.415,2.012-1.616,2.33
				l2.097,3.977h-0.93l-1.963-3.85c-0.13,0.012-0.259,0.012-0.387,0.012h-2.026V128.012z M92.317,123.439h2.165
				c1.56,0,1.793-0.795,1.793-1.734c0-0.938-0.233-1.734-1.793-1.734h-2.165V123.439z"/>
			<path fill="#FFFFFF" d="M104.054,123.811h-3.885v3.463h4.299v0.738h-5.095v-8.779h5.095v0.738h-4.299v3.104h3.885V123.811z"/>
			<path fill="#FFFFFF" d="M112.119,128.012l-4.717-7.15l0.023,7.15h-0.795v-8.779h0.601l4.715,7.154l-0.026-7.154h0.797v8.779
				H112.119z"/>
			<path fill="#FFFFFF" d="M118.332,119.115c1.077,0,1.809,0.203,2.283,0.412v0.785c-0.809-0.328-1.405-0.457-2.283-0.457
				c-1.921,0-2.607,1.652-2.607,3.768c0,2.119,0.687,3.771,2.607,3.771c0.878,0,1.475-0.131,2.283-0.455v0.783
				c-0.475,0.211-1.206,0.408-2.283,0.408c-2.622,0-3.45-2.012-3.45-4.508C114.882,121.131,115.71,119.115,118.332,119.115z"/>
			<path fill="#FFFFFF" d="M127.46,123.811h-3.881v3.463h4.295v0.738h-5.098v-8.779h5.098v0.738h-4.295v3.104h3.881V123.811z"/>
		</g>
	</g>
</g>
</svg>
